<svg width="1440" height="549" viewBox="0 0 1440 549" fill="none" xmlns="http://www.w3.org/2000/svg">
<rect width="1440" height="549" fill="#434B4F"/>
<path d="M358.829 213.516V223.369L354.842 225.533V215.737L358.829 213.516ZM356.778 235.955C355.943 236.487 354.975 236.753 353.874 236.753C352.431 236.753 351.254 236.335 350.343 235.5C349.431 234.664 348.976 233.601 348.976 232.31V229.861L352.963 227.64V232.082C352.963 232.614 353.285 232.88 353.931 232.88C354.538 232.88 354.842 232.633 354.842 232.139V229.235L358.829 227.014V232.139C358.829 232.633 359.133 232.88 359.74 232.88C360.348 232.88 360.651 232.614 360.651 232.082V228.665L364.695 226.444V232.31C364.695 233.601 364.22 234.664 363.271 235.5C362.36 236.335 361.183 236.753 359.74 236.753C358.563 236.753 357.576 236.487 356.778 235.955ZM386.28 241.081L393.456 237.265V274H386.28V241.081ZM373.352 262.097V244.84L380.528 241.024V262.154C380.528 265.837 379.408 268.779 377.168 270.981C375.079 272.994 372.346 274 368.966 274H363.328C360.366 274 357.955 273.165 356.095 271.494C354.083 273.165 351.52 274 348.406 274H342.825C339.56 274 336.959 272.975 335.022 270.925C333.314 272.367 331.188 273.089 328.644 273.089C325.15 273.089 322.36 271.779 320.271 269.159C318.563 266.995 317.709 264.394 317.709 261.356C317.709 257.597 318.924 254.56 321.354 252.244C323.366 250.27 325.739 249.282 328.473 249.282C329.878 249.282 331.169 249.548 332.346 250.08V248.542L339.465 244.783V263.008C339.465 264.489 339.768 265.552 340.376 266.197C341.021 266.805 342.066 267.109 343.508 267.109H348.008C349.754 267.109 350.988 266.729 351.71 265.97C352.469 265.21 352.849 263.919 352.849 262.097V244.84L360.025 241.024V263.008C360.025 264.489 360.329 265.552 360.936 266.197C361.544 266.805 362.569 267.109 364.011 267.109H368.568C370.314 267.109 371.548 266.729 372.27 265.97C372.991 265.21 373.352 263.919 373.352 262.097ZM332.346 257.256C331.396 256.42 330.276 256.003 328.985 256.003C327.732 256.003 326.707 256.515 325.91 257.541C325.15 258.528 324.771 259.857 324.771 261.527C324.771 263.198 325.15 264.527 325.91 265.514C326.669 266.501 327.713 266.995 329.042 266.995C330.561 266.995 331.719 266.463 332.516 265.4C332.403 264.755 332.346 264.071 332.346 263.35V257.256ZM453.466 267.109H458.591V274H452.782C449.251 274 446.517 272.823 444.581 270.469C442.948 271.722 440.955 272.348 438.601 272.348C435.108 272.348 432.317 271.038 430.229 268.419C428.52 266.254 427.666 263.654 427.666 260.616C427.666 256.857 428.881 253.801 431.311 251.447C433.361 249.472 435.734 248.485 438.43 248.485C439.835 248.485 441.126 248.751 442.303 249.282V247.802L449.422 244.043V263.008C449.422 264.489 449.726 265.552 450.333 266.197C450.979 266.805 452.023 267.109 453.466 267.109ZM442.303 256.458C441.316 255.623 440.196 255.205 438.943 255.205C437.69 255.205 436.665 255.718 435.867 256.743C435.108 257.768 434.728 259.116 434.728 260.787C434.728 262.457 435.108 263.786 435.867 264.774C436.627 265.761 437.671 266.254 439 266.254C440.442 266.254 441.563 265.761 442.36 264.774C442.322 264.47 442.303 263.995 442.303 263.35V256.458ZM486.383 242.961C485.244 242.961 484.333 242.619 483.649 241.935C482.966 241.252 482.624 240.322 482.624 239.145C482.624 238.044 482.966 237.151 483.649 236.468C484.333 235.784 485.244 235.443 486.383 235.443C487.522 235.443 488.414 235.784 489.06 236.468C489.743 237.113 490.085 238.006 490.085 239.145C490.085 241.689 488.851 242.961 486.383 242.961ZM504.779 267.109H509.904V274H504.095C501.362 274 499.121 273.298 497.375 271.893C495.628 273.298 493.445 274 490.825 274H455.173V267.109H465.367L466.051 265.172V241.081L473.227 237.265V253.668C477.099 249.719 481.542 247.745 486.554 247.745C491.072 247.745 494.66 249.301 497.318 252.415C499.596 255.035 500.735 258.281 500.735 262.154V263.35C500.735 265.856 502.083 267.109 504.779 267.109ZM490.54 267.109C491.793 267.109 492.61 266.862 492.989 266.368C493.407 265.875 493.616 264.831 493.616 263.236V262.154C493.616 259.876 492.951 258.015 491.623 256.572C490.332 255.13 488.661 254.408 486.611 254.408C483.991 254.408 481.485 255.376 479.093 257.313C476.739 259.249 474.783 261.926 473.227 265.343V267.109H490.54ZM524.562 243.701C523.423 243.701 522.512 243.359 521.829 242.676C521.145 241.992 520.803 241.062 520.803 239.885C520.803 238.784 521.145 237.892 521.829 237.208C522.512 236.525 523.423 236.183 524.562 236.183C525.701 236.183 526.594 236.525 527.239 237.208C527.923 237.854 528.264 238.746 528.264 239.885C528.264 242.429 527.03 243.701 524.562 243.701ZM533.675 267.109H542.673V274H529.176C527.239 274 525.72 273.867 524.619 273.601C523.442 273.867 521.924 274 520.063 274H506.508V267.109H515.507C514.064 264.793 513.343 262.439 513.343 260.046C513.343 256.25 514.463 253.193 516.703 250.877C518.715 248.789 521.354 247.745 524.619 247.745C528.34 247.745 531.226 249.092 533.276 251.788C534.985 253.99 535.839 256.743 535.839 260.046C535.839 262.439 535.118 264.793 533.675 267.109ZM524.562 266.482C525.853 265.875 526.897 264.944 527.695 263.691C528.53 262.401 528.948 261.053 528.948 259.648C528.948 258.015 528.549 256.743 527.752 255.832C526.992 254.883 525.948 254.408 524.619 254.408C521.734 254.408 520.291 256.136 520.291 259.591C520.291 261.072 520.69 262.457 521.487 263.748C522.284 265.001 523.309 265.913 524.562 266.482ZM539.267 274V267.109H547.753C554.436 267.109 559.752 265.115 563.7 261.129C561.118 256.61 557.986 254.351 554.303 254.351C551.265 254.351 547.943 256.003 544.336 259.306V252.984C547.526 249.491 551.133 247.745 555.157 247.745C558.119 247.745 561.004 248.827 563.814 250.991C566.624 253.155 569.111 256.231 571.275 260.217V263.065C568.541 266.558 565.124 269.254 561.023 271.152C556.961 273.051 552.518 274 547.696 274H539.267ZM627.275 274C626.819 277.493 624.845 280.227 621.352 282.201C618.201 283.948 614.271 284.821 609.563 284.821C603.26 284.821 598.514 283.018 595.324 279.411C592.97 276.715 591.793 273.411 591.793 269.501C591.793 266.501 592.496 263.881 593.901 261.641L600.735 260.217C599.216 262.799 598.457 265.514 598.457 268.362C598.457 271.551 599.406 274 601.304 275.709C603.203 277.455 605.956 278.328 609.563 278.328C615.182 278.328 618.599 276.886 619.814 274H614.347L617.935 267.109H627.446V274H627.275ZM605.747 297.408C604.608 297.408 603.697 297.047 603.013 296.326C602.33 295.642 601.988 294.731 601.988 293.592C601.988 292.491 602.33 291.599 603.013 290.915C603.697 290.232 604.608 289.89 605.747 289.89C606.886 289.89 607.778 290.213 608.424 290.858C609.107 291.542 609.449 292.453 609.449 293.592C609.449 296.136 608.215 297.408 605.747 297.408ZM614.518 297.408C613.379 297.408 612.467 297.066 611.784 296.383C611.1 295.699 610.759 294.769 610.759 293.592C610.759 291.124 612.012 289.89 614.518 289.89C615.657 289.89 616.549 290.213 617.194 290.858C617.878 291.542 618.22 292.453 618.22 293.592C618.22 296.136 616.986 297.408 614.518 297.408ZM637.402 242.961C636.263 242.961 635.351 242.619 634.668 241.935C633.984 241.252 633.643 240.322 633.643 239.145C633.643 238.044 633.984 237.151 634.668 236.468C635.351 235.784 636.263 235.443 637.402 235.443C638.541 235.443 639.433 235.784 640.078 236.468C640.762 237.113 641.104 238.006 641.104 239.145C641.104 241.689 639.87 242.961 637.402 242.961ZM624.53 274V267.109H629.656C631.099 267.109 632.124 266.805 632.731 266.197C633.339 265.552 633.643 264.489 633.643 263.008V252.472L640.819 248.713V263.35C640.819 266.805 639.756 269.501 637.629 271.437C635.769 273.146 633.339 274 630.339 274H624.53ZM646.497 274L650.085 267.109H659.084C661.02 267.109 661.988 265.989 661.988 263.748C661.988 259.572 659.976 256.364 655.951 254.123L659.483 248.029C665.406 251.485 668.595 256.174 669.051 262.097C669.203 263.995 669.62 265.305 670.304 266.027C671.025 266.748 672.24 267.109 673.949 267.109H678.277V274H673.55C670.74 274 668.367 273.222 666.431 271.665C665.026 273.222 663.014 274 660.394 274H646.497ZM683.977 258.281C683.977 254.864 685.04 252.187 687.167 250.251C689.027 248.58 691.419 247.745 694.343 247.745C698.102 247.745 701.025 249.13 703.114 251.902C704.898 254.218 705.79 257.199 705.79 260.844C705.79 265.058 704.67 268.381 702.43 270.811C700.418 272.937 697.855 274 694.741 274C691.704 274 689.217 273.336 687.281 272.007C685.458 273.336 683.256 274 680.674 274H674.865V267.109H679.991C681.433 267.109 682.459 266.805 683.066 266.197C683.674 265.552 683.977 264.489 683.977 263.008V258.281ZM691.153 263.919C691.153 266.046 692.273 267.109 694.514 267.109C697.323 267.109 698.728 264.944 698.728 260.616C698.728 256.477 697.266 254.408 694.343 254.408C692.216 254.408 691.153 255.661 691.153 258.167V263.919ZM742.532 249.111C741.393 249.111 740.482 248.77 739.798 248.086C739.115 247.403 738.773 246.473 738.773 245.296C738.773 244.195 739.115 243.302 739.798 242.619C740.482 241.935 741.393 241.594 742.532 241.594C743.671 241.594 744.564 241.935 745.209 242.619C745.892 243.264 746.234 244.157 746.234 245.296C746.234 247.84 745 249.111 742.532 249.111ZM762.409 267.109H767.535V274H761.725C760.434 274 759.238 273.829 758.137 273.487C757.416 277.132 755.574 279.999 752.613 282.087C749.955 283.91 746.728 284.821 742.931 284.821C737.805 284.821 733.837 283.018 731.028 279.411C728.825 276.601 727.724 273.298 727.724 269.501C727.724 266.501 728.427 263.881 729.832 261.641L736.666 260.217C735.147 262.799 734.388 265.514 734.388 268.362C734.388 271.247 735.204 273.582 736.837 275.367C738.394 277.075 740.425 277.93 742.931 277.93C745.551 277.93 747.582 277.265 749.025 275.936C750.506 274.608 751.246 272.747 751.246 270.355V252.472L758.422 248.713V263.008C758.422 264.489 758.726 265.552 759.333 266.197C759.941 266.805 760.966 267.109 762.409 267.109ZM764.132 274V267.109H770.169C771.612 267.109 772.637 266.805 773.245 266.197C773.89 265.552 774.213 264.489 774.213 263.008V255.49L781.389 251.731V263.008C781.389 264.489 781.693 265.552 782.3 266.197C782.908 266.805 783.933 267.109 785.376 267.109H789.248C790.691 267.109 791.716 266.805 792.324 266.197C792.931 265.552 793.235 264.489 793.235 263.008V254.009L800.411 250.194V263.008C800.411 264.489 800.715 265.552 801.322 266.197C801.968 266.805 803.012 267.109 804.455 267.109H808.328C809.771 267.109 810.796 266.805 811.403 266.197C812.011 265.552 812.314 264.489 812.314 263.008V252.472L819.491 248.713V262.097C819.491 263.919 819.851 265.21 820.573 265.97C821.332 266.729 822.585 267.109 824.332 267.109H829.571V274H823.933C820.744 274 818.181 273.089 816.244 271.266C814.536 273.051 812.239 273.962 809.353 274H803.715C800.905 274 798.608 273.165 796.823 271.494C795.191 273.127 793.026 273.962 790.331 274H784.692C781.882 274 779.585 273.165 777.801 271.494C776.016 273.165 773.719 274 770.91 274H764.132ZM863.28 267.109H868.064V274H863.223C860.223 274 857.812 273.677 855.99 273.032C854.205 272.348 852.535 271.171 850.978 269.501C846.232 272.5 840.764 274 834.576 274H826.147V267.109H834.633C841.315 267.109 846.631 265.115 850.579 261.129C847.998 256.61 844.865 254.351 841.182 254.351C838.145 254.351 834.822 256.003 831.215 259.306V252.984C834.405 249.491 838.012 247.745 842.036 247.745C844.998 247.745 847.884 248.827 850.693 250.991C853.503 253.155 855.99 256.231 858.154 260.217V263.065C857.547 263.862 856.749 264.755 855.762 265.742C857.281 266.653 859.787 267.109 863.28 267.109ZM864.634 274V267.109H868.222C869.969 267.109 871.203 266.729 871.924 265.97C872.684 265.21 873.063 263.919 873.063 262.097V241.081L880.183 237.265V262.154C880.183 265.837 879.062 268.779 876.822 270.981C874.772 272.994 872.038 274 868.621 274H864.634ZM890.435 274V241.081L897.611 237.265V274H890.435ZM921.821 270.469C921.821 274.873 920.606 278.442 918.176 281.176C915.936 283.72 912.974 284.992 909.291 284.992C906.899 284.992 904.564 284.384 902.286 283.169V276.905C904.261 278.006 906.197 278.556 908.095 278.556C910.184 278.556 911.797 277.873 912.936 276.506C914.113 275.177 914.702 273.317 914.702 270.925V252.529L921.821 248.713V270.469ZM959.145 267.109V274H952.14C951.874 277.417 950.356 280.151 947.584 282.201C945.306 283.872 942.648 284.707 939.61 284.707C937.218 284.707 934.883 284.062 932.605 282.771V276.563C934.656 277.74 936.706 278.328 938.756 278.328C940.351 278.328 941.756 277.892 942.971 277.019C944.224 276.145 944.907 275.101 945.021 273.886C944.717 273.848 944.243 273.81 943.597 273.772C942.952 273.696 942.458 273.639 942.116 273.601C938.206 273.184 935.187 271.646 933.061 268.988C931.276 266.748 930.384 264.033 930.384 260.844C930.384 256.667 931.523 253.364 933.801 250.934C935.814 248.808 938.471 247.745 941.775 247.745C945.154 247.745 947.793 248.827 949.691 250.991C951.324 252.851 952.14 255.281 952.14 258.281V267.109H959.145ZM945.021 258.167C945.021 255.661 943.939 254.408 941.775 254.408C938.889 254.408 937.446 256.477 937.446 260.616C937.446 264.299 939.117 266.349 942.458 266.767C942.99 266.881 943.844 266.976 945.021 267.052V258.167ZM968.608 242.961C967.469 242.961 966.558 242.619 965.875 241.935C965.191 241.252 964.85 240.322 964.85 239.145C964.85 238.044 965.191 237.151 965.875 236.468C966.558 235.784 967.469 235.443 968.608 235.443C969.748 235.443 970.64 235.784 971.285 236.468C971.969 237.113 972.31 238.006 972.31 239.145C972.31 241.689 971.076 242.961 968.608 242.961ZM955.737 274V267.109H960.863C962.306 267.109 963.331 266.805 963.938 266.197C964.546 265.552 964.85 264.489 964.85 263.008V252.472L972.026 248.713V263.35C972.026 266.805 970.963 269.501 968.836 271.437C966.976 273.146 964.546 274 961.546 274H955.737ZM1009.1 242.961C1007.96 242.961 1007.05 242.619 1006.36 241.935C1005.68 241.252 1005.34 240.322 1005.34 239.145C1005.34 238.044 1005.68 237.151 1006.36 236.468C1007.05 235.784 1007.96 235.443 1009.1 235.443C1010.24 235.443 1011.13 235.784 1011.78 236.468C1012.46 237.113 1012.8 238.006 1012.8 239.145C1012.8 241.689 1011.57 242.961 1009.1 242.961ZM1029.89 267.109H1034.73V274H1029.83C1026.79 274 1024.32 273.639 1022.43 272.918C1020.57 272.196 1018.84 270.944 1017.24 269.159C1016.18 269.539 1014.26 270.051 1011.49 270.697C1007.92 271.532 1005.47 272.538 1004.14 273.715C1002.51 275.234 1001.69 277.379 1001.69 280.151C1001.69 285.694 1004.6 288.466 1010.41 288.466C1014.13 288.466 1017.62 287.441 1020.89 285.391V292.168C1017.58 294.294 1013.84 295.357 1009.67 295.357C1005.11 295.357 1001.47 293.915 998.733 291.029C996.113 288.257 994.803 284.612 994.803 280.094C994.803 275.348 996.189 271.627 998.961 268.931C1000.18 267.754 1001.49 266.862 1002.89 266.254C1004.33 265.647 1006.88 264.906 1010.52 264.033C1013.83 263.236 1016.16 262.306 1017.53 261.242C1014.91 256.648 1011.76 254.351 1008.07 254.351C1004.96 254.351 1001.64 256.003 998.107 259.306V252.984C1001.26 249.491 1004.85 247.745 1008.87 247.745C1011.87 247.745 1014.77 248.827 1017.58 250.991C1020.39 253.155 1022.88 256.231 1025.05 260.217V263.065C1024.32 264.204 1023.56 265.115 1022.77 265.799C1024.25 266.672 1026.62 267.109 1029.89 267.109ZM1051.6 267.109H1056.72V274H1050.91C1048.14 274 1045.85 273.26 1044.02 271.779C1042.2 273.26 1039.9 274 1037.13 274H1031.32V267.109H1036.45C1037.89 267.109 1038.92 266.805 1039.52 266.197C1040.13 265.552 1040.43 264.489 1040.43 263.008V252.472L1047.61 248.713V263.008C1047.61 264.489 1047.91 265.552 1048.52 266.197C1049.13 266.805 1050.15 267.109 1051.6 267.109ZM1036.85 279.183C1037.99 279.183 1038.88 279.505 1039.52 280.151C1040.21 280.834 1040.55 281.746 1040.55 282.885C1040.55 285.429 1039.31 286.701 1036.85 286.701C1035.71 286.701 1034.8 286.359 1034.11 285.675C1033.43 284.992 1033.09 284.062 1033.09 282.885C1033.09 280.417 1034.34 279.183 1036.85 279.183ZM1045.62 279.183C1046.76 279.183 1047.65 279.505 1048.29 280.151C1048.98 280.834 1049.32 281.746 1049.32 282.885C1049.32 285.429 1048.09 286.701 1045.62 286.701C1044.48 286.701 1043.57 286.359 1042.88 285.675C1042.2 284.992 1041.86 284.062 1041.86 282.885C1041.86 280.417 1043.11 279.183 1045.62 279.183ZM1085.64 235.329C1083.36 235.329 1082.22 234.171 1082.22 231.855C1082.22 229.615 1083.36 228.494 1085.64 228.494C1087.88 228.494 1089 229.615 1089 231.855C1089 234.171 1087.88 235.329 1085.64 235.329ZM1081.31 243.701C1080.17 243.701 1079.26 243.359 1078.58 242.676C1077.9 241.992 1077.55 241.062 1077.55 239.885C1077.55 238.784 1077.9 237.892 1078.58 237.208C1079.26 236.525 1080.17 236.183 1081.31 236.183C1082.45 236.183 1083.34 236.525 1083.99 237.208C1084.67 237.854 1085.01 238.746 1085.01 239.885C1085.01 242.429 1083.78 243.701 1081.31 243.701ZM1090.08 243.701C1088.94 243.701 1088.03 243.359 1087.35 242.676C1086.67 241.992 1086.32 241.062 1086.32 239.885C1086.32 238.784 1086.67 237.892 1087.35 237.208C1088.03 236.525 1088.94 236.183 1090.08 236.183C1091.22 236.183 1092.11 236.525 1092.76 237.208C1093.44 237.854 1093.79 238.746 1093.79 239.885C1093.79 242.429 1092.55 243.701 1090.08 243.701ZM1053.29 274V267.109H1059.33C1060.77 267.109 1061.8 266.805 1062.4 266.197C1063.05 265.552 1063.37 264.489 1063.37 263.008V255.49L1070.55 251.731V263.008C1070.55 264.489 1070.85 265.552 1071.46 266.197C1072.07 266.805 1073.09 267.109 1074.54 267.109H1078.41C1079.85 267.109 1080.88 266.805 1081.48 266.197C1082.09 265.552 1082.39 264.489 1082.39 263.008V254.009L1089.57 250.194V263.008C1089.57 264.489 1089.87 265.552 1090.48 266.197C1091.13 266.805 1092.17 267.109 1093.61 267.109H1097.49C1098.93 267.109 1099.96 266.805 1100.56 266.197C1101.17 265.552 1101.47 264.489 1101.47 263.008V252.472L1108.65 248.713V263.35C1108.65 266.729 1107.62 269.387 1105.57 271.323C1103.79 273.032 1101.44 273.924 1098.51 274H1092.87C1090.06 274 1087.77 273.165 1085.98 271.494C1084.35 273.127 1082.19 273.962 1079.49 274H1073.85C1071.04 274 1068.74 273.165 1066.96 271.494C1065.18 273.165 1062.88 274 1060.07 274H1053.29Z" fill="white"/>
</svg>
